<svg viewBox="0 0 200 200" xmlns="http://www.w3.org/2000/svg">
  <defs>
    <linearGradient id="swanGradient" x1="0%" y1="0%" x2="100%" y2="100%">
      <stop offset="0%" style="stop-color:#B91C3C;stop-opacity:1" />
      <stop offset="50%" style="stop-color:#BE123C;stop-opacity:1" />
      <stop offset="100%" style="stop-color:#A21CAF;stop-opacity:1" />
    </linearGradient>
    <filter id="shadow" x="-20%" y="-20%" width="140%" height="140%">
      <feDropShadow dx="2" dy="4" stdDeviation="3" flood-color="#000000" flood-opacity="0.3"/>
    </filter>
  </defs>
  
  <!-- Swan body and neck -->
  <path d="M50 150 Q30 120 40 90 Q50 60 80 50 Q120 45 140 60 Q160 80 150 100 Q140 120 120 140 Q100 155 80 150 Q60 145 50 150 Z" 
        fill="url(#swanGradient)" 
        filter="url(#shadow)"/>
  
  <!-- Swan neck curve -->
  <path d="M140 60 Q160 40 170 20 Q175 10 165 15 Q150 25 140 40 Q135 50 140 60" 
        fill="url(#swanGradient)" 
        filter="url(#shadow)"/>
  
  <!-- Swan head -->
  <circle cx="165" cy="25" r="8" fill="url(#swanGradient)" filter="url(#shadow)"/>
  
  <!-- Wing details -->
  <path d="M80 80 Q70 70 75 85 Q80 100 90 95 Q100 90 95 75 Q90 65 80 80" 
        fill="none" 
        stroke="url(#swanGradient)" 
        stroke-width="2" 
        opacity="0.8"/>
  
  <path d="M90 85 Q85 75 90 90 Q95 105 105 100 Q115 95 110 80 Q105 70 90 85" 
        fill="none" 
        stroke="url(#swanGradient)" 
        stroke-width="2" 
        opacity="0.6"/>
  
  <path d="M100 90 Q95 80 100 95 Q105 110 115 105 Q125 100 120 85 Q115 75 100 90" 
        fill="none" 
        stroke="url(#swanGradient)" 
        stroke-width="2" 
        opacity="0.4"/>
</svg> 